<svg width="300" height="200" xmlns="http://www.w3.org/2000/svg">
  <rect width="300" height="200" fill="#0099cc" />
  <text x="150" y="30" font-family="Arial" font-size="20" fill="white" text-anchor="middle">Artificial Plants</text>
  
  <!-- Plant 1 -->
  <path d="M80,180 C80,150 70,140 80,130 C90,140 80,150 80,180 Z" fill="#33cc33" />
  <path d="M90,180 C90,160 100,150 90,140 C80,150 90,160 90,180 Z" fill="#33cc33" />
  
  <!-- Plant 2 -->
  <path d="M130,180 C130,140 120,130 130,110 C140,130 130,140 130,180 Z" fill="#009933" />
  <path d="M140,180 C140,150 150,140 140,120 C130,140 140,150 140,180 Z" fill="#009933" />
  
  <!-- Plant 3 -->
  <path d="M180,180 C180,160 170,150 180,140 C190,150 180,160 180,180 Z" fill="#66cc66" />
  <path d="M190,180 C190,150 200,140 190,130 C180,140 190,150 190,180 Z" fill="#66cc66" />
  
  <!-- Plant 4 -->
  <path d="M230,180 C230,140 220,130 230,120 C240,130 230,140 230,180 Z" fill="#00cc66" />
  <path d="M240,180 C240,150 250,140 240,130 C230,140 240,150 240,180 Z" fill="#00cc66" />
  
  <!-- Bubbles -->
  <circle cx="100" cy="120" r="3" fill="white" fill-opacity="0.7" />
  <circle cx="150" cy="130" r="4" fill="white" fill-opacity="0.7" />
  <circle cx="200" cy="110" r="3" fill="white" fill-opacity="0.7" />
</svg>
